<?xml version="1.0" encoding="utf-8"?>
<!-- Generator: Adobe Illustrator 19.1.0, SVG Export Plug-In . SVG Version: 6.00 Build 0)  -->
<svg version="1.1" xmlns="http://www.w3.org/2000/svg" xmlns:xlink="http://www.w3.org/1999/xlink" x="0px" y="0px"
	 viewBox="0 0 60 60" enable-background="new 0 0 60 60" xml:space="preserve">
<g id="Layer_1">
</g>
<g id="Layer_2">
	<path d="M27,2v3.3L16.9,16H41L30,5.3V4h25v52h2V2H27z M21.9,14.9c-0.5,0-0.9-0.2-0.9-0.4c0-0.2,0.4-0.4,0.9-0.4
		c0.5,0,0.9,0.2,0.9,0.4C22.8,14.7,22.4,14.9,21.9,14.9z M24.5,14.9c-0.5,0-0.9-0.2-0.9-0.4c0-0.2,0.4-0.4,0.9-0.4
		c0.5,0,0.9,0.2,0.9,0.4C25.4,14.7,25,14.9,24.5,14.9z M27.2,14.9c-0.5,0-0.9-0.2-0.9-0.4c0-0.2,0.4-0.4,0.9-0.4
		c0.5,0,0.9,0.2,0.9,0.4C28.1,14.7,27.7,14.9,27.2,14.9z M35.2,14c0.5,0,0.9,0.2,0.9,0.4c0,0.2-0.4,0.4-0.9,0.4
		c-0.5,0-0.9-0.2-0.9-0.4C34.3,14.2,34.7,14,35.2,14z M32.5,14c0.5,0,0.9,0.2,0.9,0.4c0,0.2-0.4,0.4-0.9,0.4c-0.5,0-0.9-0.2-0.9-0.4
		C31.7,14.2,32,14,32.5,14z M30.8,14.4c0,0.2-0.4,0.4-0.9,0.4c-0.5,0-0.9-0.2-0.9-0.4c0-0.2,0.4-0.4,0.9-0.4
		C30.4,14,30.8,14.2,30.8,14.4z"/>
	<g>
		<path d="M41.5,53.8h-27c-4.6,0-8.3-3.3-8.3-7.4l-1.9-9.5h47.4l-1.9,9.5C49.8,50.5,46.1,53.8,41.5,53.8z"/>
		<g>
			<circle cx="43.4" cy="56" r="1.7"/>
			<circle cx="12.6" cy="56" r="1.7"/>
		</g>
	</g>
</g>
</svg>
