<?xml version="1.0" encoding="utf-8"?>
<!-- Generator: Adobe Illustrator 19.1.0, SVG Export Plug-In . SVG Version: 6.00 Build 0)  -->
<svg version="1.1" xmlns="http://www.w3.org/2000/svg" xmlns:xlink="http://www.w3.org/1999/xlink" x="0px" y="0px"
	 viewBox="0 0 60 60" enable-background="new 0 0 60 60" xml:space="preserve">
<g id="Layer_1">
</g>
<g id="Layer_2">
	<g>
		<path d="M44,27.8l-1.5,3L36,43.6l-8-7.9L22,48l-2,4h39L44,27.8z M45,40l9,9.6L45,50V40z"/>
		<path d="M27,32.8l8,7.9l5.6-11L30,12l-4,5.6l-9,12.4L6,45h15L27,32.8z M30,22.3l7.3,7.7L34,35l-6.3-6.5L30,22.3z"/>
		<path d="M15,2.8L1,29h13.9l11-14.4L15,2.8z M15.8,7.1l6.9,7.8L17,21.5L15.8,7.1z"/>
	</g>
</g>
</svg>
