<?xml version="1.0" encoding="utf-8"?>
<!-- Generator: Adobe Illustrator 19.1.0, SVG Export Plug-In . SVG Version: 6.00 Build 0)  -->
<svg version="1.1" xmlns="http://www.w3.org/2000/svg" xmlns:xlink="http://www.w3.org/1999/xlink" x="0px" y="0px"
	 viewBox="0 0 60 60" enable-background="new 0 0 60 60" xml:space="preserve">
<g id="Layer_1">
	<path d="M60,50.4c-1,0.4-2.1,0.8-3.3,0.8c-2.5,0-4.2-1.7-6.7-1.7c-2.5,0-4.2,1.7-6.7,1.7c-2.5,0-4.2-1.7-6.7-1.7
		c-2.5,0-4.2,1.7-6.7,1.7s-4.2-1.7-6.7-1.7s-4.2,1.7-6.7,1.7s-4.2-1.7-6.7-1.7s-4.2,1.7-6.7,1.7c-1.2,0-2.3-0.4-3.3-0.8v5
		c1,0.4,2.1,0.8,3.3,0.8c2.5,0,4.2-1.7,6.7-1.7s4.2,1.7,6.7,1.7s4.2-1.7,6.7-1.7s4.2,1.7,6.7,1.7c2.5,0,4.2-1.7,6.7-1.7
		c2.5,0,4.2,1.7,6.7,1.7c2.5,0,4.2-1.7,6.7-1.7c2.5,0,4.2,1.7,6.7,1.7c1.2,0,2.3-0.4,3.3-0.8L60,50.4L60,50.4z M60,40.4
		c-1,0.4-2.1,0.8-3.3,0.8c-2.5,0-4.2-1.7-6.7-1.7c-2.5,0-4.2,1.7-6.7,1.7c-2.5,0-4.2-1.7-6.7-1.7c-2.5,0-4.2,1.7-6.7,1.7
		s-4.2-1.7-6.7-1.7s-4.2,1.7-6.7,1.7s-4.2-1.7-6.7-1.7s-4.2,1.7-6.7,1.7c-1.2,0-2.3-0.4-3.3-0.8v5c1,0.4,2.1,0.8,3.3,0.8
		c2.5,0,4.2-1.7,6.7-1.7s4.2,1.7,6.7,1.7s4.2-1.7,6.7-1.7s4.2,1.7,6.7,1.7c2.5,0,4.2-1.7,6.7-1.7c2.5,0,4.2,1.7,6.7,1.7
		c2.5,0,4.2-1.7,6.7-1.7c2.5,0,4.2,1.7,6.7,1.7c1.2,0,2.3-0.4,3.3-0.8V40.4z M10,36.3v-1.7h16.7v2.5c1,0.4,2.1,0.8,3.3,0.8
		c0.6,0,1.1-0.1,1.7-0.2V20.4c0-6.4,5.2-11.7,11.7-11.7S55,14,55,20.4c0,1.4,1.1,2.5,2.5,2.5s2.5-1.1,2.5-2.5
		c0-9.2-7.5-16.7-16.7-16.7c-8.9,0-16.2,7-16.6,15.8H10c0.4-6,5.5-10.8,11.6-10.8c2,0,3.9,0.5,5.5,1.4c0.9-1.4,2-2.7,3.3-3.9
		c-2.5-1.6-5.5-2.5-8.8-2.5C12.5,3.7,5,11.2,5,20.4v17.3C6.7,37.2,8.1,36.3,10,36.3z M10,24.6h16.7v5H10V24.6z"/>
</g>
<g id="Layer_2">
</g>
</svg>
