<?xml version="1.0" encoding="utf-8"?>
<!-- Generator: Adobe Illustrator 19.1.0, SVG Export Plug-In . SVG Version: 6.00 Build 0)  -->
<svg version="1.1" xmlns="http://www.w3.org/2000/svg" xmlns:xlink="http://www.w3.org/1999/xlink" x="0px" y="0px"
	 viewBox="0 0 60 60" enable-background="new 0 0 60 60" xml:space="preserve">
<g id="Layer_1">
</g>
<g id="Layer_2">
	<path d="M57.6,47.3l0.7-5.1c0.6-0.2,0.7-0.4,1.7-0.6v5C59,46.8,58.5,47.1,57.6,47.3z M0,41.5v5c1,0.3,1.4,0.5,2.1,0.7L1.4,42
		C0.9,41.9,0,41.7,0,41.5z M0,50.4v5c1,0.4,2,0.8,3.2,0.8l-0.6-5.1C1.7,51.1,1,50.8,0,50.4z M56.7,56.3c1.2,0,2.3-0.4,3.3-0.8v-5
		c-1,0.4-1.8,0.7-2.9,0.8l-0.6,5C56.5,56.2,56.6,56.3,56.7,56.3z M16.7,47.3c2.5,0,4.2-1.7,6.7-1.7c2.5,0,4.2,1.7,6.7,1.7
		c2.5,0,4.2-1.7,6.7-1.7c2.5,0,4.2,1.7,6.7,1.7c1.2,0,2.3-0.4,3.3-0.8l1.1-5.4c-1.4,0.5-2.8,1.2-4.4,1.2c-2.5,0-4.2-1.7-6.7-1.7
		c-2.5,0-4.2,1.7-6.7,1.7s-4.2-1.7-6.7-1.7c-2.5,0-4.2,1.7-6.7,1.7c-1.7,0-3-0.8-4.4-1.2l1.1,5.4C14.4,46.9,15.4,47.3,16.7,47.3z
		 M43.3,51.3c-2.5,0-4.2-1.7-6.7-1.7c-2.5,0-4.2,1.7-6.7,1.7s-4.2-1.7-6.7-1.7c-2.5,0-4.2,1.7-6.7,1.7c-0.9,0-1.7-0.2-2.5-0.5
		l1.1,5.3c0.5,0.1,0.9,0.2,1.5,0.2c2.5,0,4.2-1.7,6.7-1.7c2.5,0,4.2,1.7,6.7,1.7c2.5,0,4.2-1.7,6.7-1.7c2.5,0,4.2,1.7,6.7,1.7
		c0.5,0,0.9-0.1,1.3-0.2l1.1-5.3C45,51,44.2,51.3,43.3,51.3z M50,45.7c2.5,0,4.2,1.7,6.7,1.7c0.3,0,0.7,0,1-0.1l0.7-5.1
		c-0.5,0.1-1,0.2-1.6,0.2c-2.5,0-4.2-1.7-6.7-1.7c-0.4,0-0.8,0.1-1.2,0.1l-1,5.3C48.5,45.9,49.2,45.7,50,45.7z M50,49.6
		c-1.1,0-2.1,0.3-3,0.7l-1,5.4c1.3-0.5,2.5-1.1,4-1.1c2.4,0,4.1,1.6,6.5,1.7l0.6-5c-0.2,0-0.3,0-0.5,0C54.2,51.3,52.5,49.6,50,49.6z
		 M10,45.7c0.7,0,1.3,0.1,1.9,0.3l-1-5.2c-0.3-0.1-0.6-0.1-1-0.1c-2.5,0-4.2,1.7-6.7,1.7c-0.7,0-1.3-0.1-1.9-0.3l0.7,5.2
		c0.4,0.1,0.8,0.1,1.2,0.1C5.8,47.3,7.5,45.7,10,45.7z M10,49.6c-2.5,0-4.2,1.7-6.7,1.7c-0.3,0-0.5,0-0.7-0.1l0.6,5.1
		c0,0,0.1,0,0.1,0c2.5,0,4.2-1.7,6.7-1.7c1.4,0,2.5,0.5,3.7,1l-1-5.4C11.9,49.9,11,49.6,10,49.6z M56.1,22c4.7,1.4,3.9,5,3.8,7H48.3
		c-0.4-1-1.4-2.6-3.9-3.3l-0.8-0.2c-3.3-0.9-5-1.4-5.5-2.5c-0.1-0.4-0.1-0.8,1-1.2c3.5-1,5.3-1.8,5.7-2.8h0.2
		c-0.1,0-0.1-0.1-0.2-0.2c-1.7-1.7-3-4.9-3-7.5c0-3.7,2.8-6.1,5.5-6.1c2.7,0,5.4,2.6,5.4,6.3c0,2.6-1.5,5.7-3.3,7.4
		C49.9,20.3,51.9,20.8,56.1,22z M48.1,38H12c0-1,0-0.9-0.1-1.3c-0.1-1.4-0.2-3,0.2-4.3c0.5-1.6,1.8-3,4.7-3.9l1.1-0.4
		c5.1-1.5,7.9-2.3,8.8-4.2l0.3-0.5l0-0.6c-0.1,0-0.1-0.1-0.2-0.2c-0.3-0.3-0.6-0.6-0.9-1c-2-2.5-3.4-6.4-3.4-9.7
		c0-4.1,3.1-8.5,7.6-8.5c3.6,0,7.4,3.5,7.4,8.8c0,3.4-1.8,7.5-4.1,10c-0.2,0.2-0.3,0.3-0.5,0.5l-0.3,0.3l0.1,0.4
		c0.6,2.4,3.4,3.3,9,4.8l1.2,0.3c2.9,0.9,4.3,2.7,4.9,3.7h0c0.6,2,0.5,3.5,0.4,5C48.1,37.2,48.1,37,48.1,38z M3.9,22
		c-4.7,1.4-3.9,5-3.8,7h11.6c0.4-1,1.4-2.6,3.9-3.3l0.8-0.2c3.3-0.9,5-1.4,5.5-2.5c-0.1-0.4,0.1-1-1-1.2c-3.5-1-5.3-1.8-5.7-2.8
		h-0.2c0.1,0,0.1-0.1,0.2-0.2c1.7-1.7,3-4.9,3-7.5c0-3.7-2.8-6.1-5.5-6.1c-2.7,0-5.4,2.6-5.4,6.3c0,2.6,1.5,5.7,3.3,7.4
		C10.1,20.3,8.1,20.8,3.9,22z"/>
</g>
</svg>
